<?xml version="1.0" encoding="UTF-8"?>
<svg width="256px" height="255px" viewBox="0 0 256 255" version="1.1" xmlns="http://www.w3.org/2000/svg" xmlns:xlink="http://www.w3.org/1999/xlink">
    <title>Live Photos</title>
    <desc>Live Photos Icon</desc>
    <defs>
        <polygon id="path-1" points="127.903152 254.976 0 254.976 0 0.216064 255.806304 0.216064 255.806304 254.976 127.903152 254.976"></polygon>
    </defs>
    <g id="Page-1" stroke="none" stroke-width="1" fill="none" fill-rule="evenodd">
        <g transform="translate(0.000000, -1.000000)">
            <path d="M127.900582,51.7629952 C85.4683245,51.7629952 50.9473928,86.1458432 50.9473928,128.408371 C50.9473928,170.671923 85.4683245,205.053747 127.900582,205.053747 C170.332839,205.053747 204.85377,170.671923 204.85377,128.408371 C204.85377,86.1458432 170.332839,51.7629952 127.900582,51.7629952 M127.900582,213.668659 C80.6989108,213.668659 42.2989108,175.420211 42.2989108,128.408371 C42.2989108,81.3975552 80.6989108,43.1491072 127.900582,43.1491072 C175.101224,43.1491072 213.502252,81.3975552 213.502252,128.408371 C213.502252,175.420211 175.101224,213.668659 127.900582,213.668659" id="Fill-1" fill="#FFFFFF"></path>
            <path d="M127.900582,106.232013 C115.621835,106.232013 105.633722,116.179149 105.633722,128.408781 C105.633722,140.637389 115.621835,150.585549 127.900582,150.585549 C140.179329,150.585549 150.166413,140.637389 150.166413,128.408781 C150.166413,116.179149 140.179329,106.232013 127.900582,106.232013 M127.900582,169.966797 C104.892453,169.966797 86.1746378,151.323853 86.1746378,128.408781 C86.1746378,105.493709 104.892453,86.8507648 127.900582,86.8507648 C150.907682,86.8507648 169.625497,105.493709 169.625497,128.408781 C169.625497,151.323853 150.907682,169.966797 127.900582,169.966797" id="Fill-3" fill="#FFFFFF"></path>
            <g id="Group-7" transform="translate(0.000000, 0.807936)">
                <mask id="mask-2" fill="white">
                    <use xlink:href="#path-1"></use>
                </mask>
                <g id="Clip-6"></g>
                <path d="M122.097195,5.62176 C122.075605,2.649088 124.497838,0.216064 127.480392,0.216064 C130.466031,0.193536 132.886207,2.60608 132.908826,5.577728 C132.908826,8.549376 130.508183,10.960896 127.524601,10.9824 L127.504039,10.9824 C124.519428,10.9824 122.097195,8.569856 122.097195,5.62176 L122.097195,5.62176 Z M147.850384,12.662784 C144.908954,12.166144 142.919557,9.39008 143.438753,6.439936 C143.935332,3.510272 146.724601,1.550336 149.686593,2.045952 C152.605404,2.563072 154.593773,5.34016 154.098223,8.269824 C153.643798,10.896384 151.351107,12.7488 148.758207,12.7488 C148.453886,12.7488 148.151621,12.72832 147.850384,12.662784 L147.850384,12.662784 Z M100.930416,8.441856 C100.389629,5.512192 102.356408,2.7136 105.297838,2.19648 C108.238239,1.67936 111.049099,3.617792 111.568296,6.547456 C112.086464,9.474048 110.141276,12.275712 107.200874,12.790784 C106.87599,12.85632 106.551107,12.8768 106.227251,12.8768 C103.676504,12.8768 101.384842,11.047936 100.930416,8.441856 L100.930416,8.441856 Z M167.567524,17.831936 C164.756665,16.841728 163.308055,13.740032 164.303267,10.960896 C165.318014,8.162304 168.411605,6.699008 171.222464,7.709696 C174.032296,8.721408 175.504553,11.800576 174.486721,14.60224 C173.685822,16.797696 171.611091,18.153472 169.40579,18.153472 C168.779669,18.153472 168.173083,18.067456 167.567524,17.831936 L167.567524,17.831936 Z M80.5624803,14.902272 C79.5467052,12.10368 80.9737253,9.022464 83.7845847,7.990272 C86.5738538,6.97856 89.6869783,8.397824 90.7243438,11.199488 C91.741147,13.9776 90.3141269,17.077248 87.5248578,18.111488 L87.5022394,18.111488 C86.8977092,18.326528 86.2705606,18.434048 85.643412,18.434048 C83.4381108,18.434048 81.3839422,17.077248 80.5624803,14.902272 L80.5624803,14.902272 Z M186.076633,26.381312 C183.481677,24.894464 182.594416,21.600256 184.087235,19.01568 C185.577998,16.452608 188.865902,15.548416 191.460858,17.035264 C194.053757,18.520064 194.941018,21.793792 193.450255,24.378368 C192.455043,26.12224 190.639396,27.091968 188.75795,27.091968 C187.850127,27.091968 186.918657,26.8544 186.076633,26.381312 L186.076633,26.381312 Z M61.6863357,24.807424 C60.1729542,22.2464 61.0375968,18.951168 63.6335807,17.442816 C66.2059181,15.935488 69.5133558,16.818176 71.0277655,19.382272 C72.5195566,21.943296 71.6549141,25.260032 69.0599582,26.74688 C68.2158779,27.241472 67.2648739,27.47904 66.3570506,27.47904 C64.4982233,27.47904 62.6805205,26.532864 61.6863357,24.807424 L61.6863357,24.807424 Z M202.833838,37.987328 C200.540119,36.071424 200.217292,32.690176 202.14089,30.408704 C204.042898,28.12416 207.459316,27.802624 209.753035,29.718528 C212.043669,31.612928 212.345934,35.01568 210.442898,37.300224 C209.362352,38.569984 207.82738,39.236608 206.292408,39.236608 C205.060729,39.236608 203.828022,38.829056 202.833838,37.987328 L202.833838,37.987328 Z M44.7779984,37.815296 C42.8533719,35.554304 43.1361028,32.151552 45.4267373,30.235648 C47.6978378,28.317696 51.1142554,28.599296 53.0378538,30.881792 C54.9624803,33.14176 54.6818056,36.544512 52.3891149,38.462464 C51.3723116,39.322624 50.1406329,39.733248 48.9089542,39.733248 C47.3739823,39.733248 45.8595727,39.085056 44.7779984,37.815296 L44.7779984,37.815296 Z M217.319942,52.308992 C215.373725,50.025472 215.6544,46.62272 217.947091,44.706816 C220.217163,42.790912 223.633581,43.070464 225.557179,45.35296 C227.480778,47.614976 227.200103,51.01568 224.930031,52.933632 C223.914255,53.793792 222.681549,54.204416 221.450898,54.204416 C219.912842,54.204416 218.37787,53.558272 217.319942,52.308992 L217.319942,52.308992 Z M30.3998458,53.558272 C28.1081831,51.64032 27.7843277,48.237568 29.7079261,45.9776 L29.7079261,45.956096 C31.6325526,43.674624 35.0273799,43.37152 37.3190426,45.289472 C39.6107052,47.205376 39.9139984,50.586624 38.0109622,52.86912 C36.9304161,54.13888 35.3954442,54.807552 33.8604723,54.807552 C32.6267373,54.807552 31.3950586,54.397952 30.3998458,53.558272 L30.3998458,53.558272 Z M229.081549,68.891648 C227.590786,66.328576 228.4544,63.033344 231.027765,61.52704 C233.600103,60.019712 236.930159,60.878848 238.422978,63.464448 C239.93636,66.02752 239.070689,69.320704 236.475733,70.829056 C235.633709,71.325696 234.680649,71.561216 233.752263,71.561216 C231.89138,71.561216 230.09938,70.614016 229.081549,68.891648 L229.081549,68.891648 Z M18.9620948,71.518208 C16.367139,70.03136 15.4819341,66.738176 16.9511068,64.175104 C18.442898,61.590528 21.7513639,60.706816 24.3452916,62.193664 C26.9196851,63.680512 27.8275084,66.953216 26.3357173,69.537792 C25.3405044,71.28064 23.5238297,72.229888 21.6423839,72.229888 C20.7345606,72.229888 19.8061751,72.0128 18.9620948,71.518208 L18.9620948,71.518208 Z M237.79583,87.26016 L237.79583,87.26016 C236.756408,84.460544 238.184456,81.360896 240.994288,80.347136 C243.783557,79.314944 246.897709,80.736256 247.937131,83.535872 C248.973468,86.313984 247.524858,89.413632 244.735589,90.447872 C244.10844,90.662912 243.481292,90.770432 242.854143,90.770432 C240.67146,90.770432 238.595701,89.43616 237.79583,87.26016 L237.79583,87.26016 Z M10.8317815,91.201536 C8.0219502,90.189824 6.57333976,87.110656 7.58911486,84.308992 C8.5832996,81.5104 11.6974522,80.067584 14.5083116,81.079296 C17.2975807,82.093056 18.7677815,85.1712 17.7509783,87.970816 C16.9511068,90.16832 14.8753478,91.52512 12.6700466,91.52512 C12.042898,91.52512 11.4383679,91.4176 10.8317815,91.201536 L10.8317815,91.201536 Z M243.135846,106.858496 L243.135846,106.858496 C242.615621,103.928832 244.562866,101.129216 247.504296,100.591616 C250.443669,100.073472 253.255557,102.012928 253.772697,104.940544 C254.313484,107.870208 252.345677,110.6688 249.427894,111.207424 C249.10301,111.251456 248.779155,111.29344 248.454271,111.29344 C245.882962,111.29344 243.61289,109.463552 243.135846,106.858496 L243.135846,106.858496 Z M6.27004659,111.983616 C3.32964498,111.486976 1.36183775,108.708864 1.88103454,105.781248 L1.88103454,105.760768 C2.37864096,102.831104 5.1895004,100.871168 8.1288739,101.388288 C11.0703036,101.88288 13.0370827,104.68352 12.5189141,107.611136 C12.0655165,110.217216 9.79441606,112.069632 7.20048835,112.069632 C6.89719518,112.069632 6.59390201,112.048128 6.27004659,111.983616 L6.27004659,111.983616 Z M244.995701,127.596544 L244.995701,127.337472 L244.995701,127.099904 C244.974111,124.107776 247.372697,121.695232 250.35628,121.674752 C253.341918,121.674752 255.785741,124.065792 255.785741,127.03744 L255.785741,127.337472 L255.785741,127.596544 L255.806304,127.596544 C255.806304,130.568192 253.385099,132.980736 250.401516,132.980736 C247.417934,132.980736 244.995701,130.568192 244.995701,127.596544 L244.995701,127.596544 Z M-0.00041124498,127.876096 C-0.00041124498,124.904448 2.42182169,122.491904 5.40540402,122.491904 C8.38898635,122.471424 10.8112193,124.883968 10.8112193,127.855616 C10.8112193,130.82624 8.41160482,133.238784 5.42699438,133.260288 C2.44341205,133.260288 -0.00041124498,130.847744 -0.00041124498,127.876096 L-0.00041124498,127.876096 Z M247.612247,154.062848 C244.670818,153.567232 242.70301,150.767616 243.222207,147.837952 C243.741404,144.91136 246.552263,142.9504 249.492665,143.468544 C252.432039,143.985664 254.399846,146.761728 253.882705,149.691392 C253.427251,152.317952 251.135589,154.149888 248.562223,154.149888 C248.239396,154.149888 247.937131,154.128384 247.612247,154.062848 L247.612247,154.062848 Z M1.9684241,149.970944 C1.4481992,147.043328 3.41600643,144.241664 6.35640803,143.726592 C9.29680964,143.209472 12.0860787,145.169408 12.6052755,148.097024 C13.1460627,151.026688 11.1782554,153.82528 8.23785382,154.343424 C7.91399839,154.385408 7.61070522,154.42944 7.2868498,154.42944 C4.71348434,154.42944 2.44341205,152.599552 1.9684241,149.970944 L1.9684241,149.970944 Z M241.190657,174.370816 C238.401388,173.3376 236.952778,170.256384 237.968553,167.457792 C238.984328,164.67968 242.09848,163.236864 244.887749,164.248576 C247.698609,165.262336 249.147219,168.361984 248.131444,171.140096 C247.330545,173.3376 245.255814,174.6944 243.048456,174.6944 C242.421308,174.6944 241.817806,174.58688 241.190657,174.370816 L241.190657,174.370816 Z M7.76183775,171.419648 C6.74606265,168.621056 8.17308273,165.520384 10.9839422,164.506624 C13.7948016,163.474432 16.8863357,164.917248 17.9247293,167.71584 C18.9405044,170.493952 17.5134843,173.596672 14.7026249,174.608384 C14.0970667,174.843904 13.4699181,174.952448 12.8427695,174.952448 C10.6374683,174.952448 8.56170924,173.596672 7.76183775,171.419648 L7.76183775,171.419648 Z M231.309468,193.234944 C228.735075,191.750144 227.84987,188.454912 229.340633,185.869312 C230.833452,183.308288 234.14089,182.424576 236.714255,183.909376 C239.309211,185.396224 240.196472,188.69248 238.703653,191.277056 C237.687878,192.999424 235.872231,193.9456 234.011348,193.9456 C233.103524,193.9456 232.175139,193.73056 231.309468,193.234944 L231.309468,193.234944 Z M17.2317815,191.491072 C15.7399904,188.928 16.605661,185.633792 19.1995888,184.146944 C21.7729542,182.639616 25.0814201,183.523328 26.5732112,186.0864 C28.0865928,188.648448 27.2003598,191.96416 24.6269944,193.451008 C23.7613237,193.9456 22.8329382,194.183168 21.9024964,194.183168 C20.0436691,194.183168 18.2280225,193.21344 17.2317815,191.491072 L17.2317815,191.491072 Z M218.291508,210.097152 C216.000874,208.201728 215.698609,204.798976 217.622207,202.517504 C219.545806,200.233984 222.962223,199.954432 225.234352,201.848832 C227.524986,203.766784 227.827251,207.169536 225.903653,209.451008 C224.843669,210.721792 223.308697,211.366912 221.773725,211.366912 C220.53999,211.366912 219.30934,210.95936 218.291508,210.097152 L218.291508,210.097152 Z M30.0544,209.644544 L30.0544,209.644544 C28.1297735,207.363072 28.4114763,203.9808 30.703139,202.044416 C32.9937735,200.126464 36.4101912,200.429568 38.3132273,202.71104 C40.2378538,204.972032 39.9571791,208.374784 37.6644884,210.290688 C36.6497414,211.131392 35.4160064,211.562496 34.1843277,211.562496 C32.6493558,211.562496 31.1349462,210.893824 30.0544,209.644544 L30.0544,209.644544 Z M202.552135,224.484352 C200.62648,222.199808 200.930802,218.820608 203.200874,216.902656 C205.491508,214.986752 208.907926,215.286784 210.810962,217.547776 C212.736617,219.83232 212.454914,223.235072 210.162223,225.129472 C209.146448,225.989632 207.913741,226.400256 206.683091,226.400256 C205.147091,226.400256 203.612119,225.754112 202.552135,224.484352 L202.552135,224.484352 Z M45.8379823,225.301504 C43.5463197,223.407104 43.2430265,220.004352 45.167653,217.720832 C47.0706892,215.438336 50.4871068,215.136256 52.7787695,217.054208 C55.0704321,218.970112 55.3726972,222.35136 53.4480707,224.632832 C52.3891149,225.903616 50.854143,226.572288 49.2975807,226.572288 C48.0864643,226.572288 46.8537574,226.141184 45.8379823,225.301504 L45.8379823,225.301504 Z M184.541661,235.938816 C183.048842,233.356288 183.935075,230.061056 186.509468,228.574208 C189.102368,227.089408 192.390271,227.949568 193.903653,230.534144 C195.394416,233.09824 194.508183,236.391424 191.935846,237.898752 C191.070175,238.372864 190.140761,238.610432 189.232938,238.610432 C187.351492,238.610432 185.535846,237.663232 184.541661,235.938816 L184.541661,235.938816 Z M64.0869783,238.029824 C61.514641,236.542976 60.6273799,233.247744 62.1191711,230.665216 C63.6109622,228.10112 66.9194281,227.217408 69.4927936,228.704256 C72.0867213,230.189056 72.9729542,233.463808 71.4811631,236.048384 C70.4643598,237.770752 68.6487133,238.74048 66.7898859,238.74048 C65.8810345,238.74048 64.9516209,238.523392 64.0869783,238.029824 L64.0869783,238.029824 Z M164.822464,244.079616 C163.806689,241.281024 165.233709,238.201856 168.044569,237.188096 C170.8544,236.155904 173.945934,237.59872 174.985356,240.397312 C176.000103,243.196928 174.551492,246.278144 171.762223,247.289856 L171.741661,247.289856 C171.136103,247.525376 170.508954,247.63392 169.902368,247.63392 C167.698095,247.611392 165.622336,246.278144 164.822464,244.079616 L164.822464,244.079616 Z M84.3027534,247.396352 C81.491894,246.38464 80.0432835,243.282944 81.0590586,240.504832 C82.0758618,237.70624 85.1889863,236.263424 88.0008739,237.275136 C90.8107052,238.285824 92.2387534,241.36704 91.2435406,244.166656 C90.4436691,246.362112 88.36791,247.72096 86.1410185,247.72096 C85.5354602,247.72096 84.9083116,247.611392 84.3027534,247.396352 L84.3027534,247.396352 Z M143.979541,248.687616 C143.460344,245.76 145.404504,242.961408 148.345934,242.444288 C151.287364,241.926144 154.098223,243.887104 154.61742,246.815744 C155.134561,249.74336 153.16881,252.521472 150.22738,253.038592 C149.902496,253.104128 149.600231,253.125632 149.275348,253.125632 C146.70301,253.125632 144.433966,251.293696 143.979541,248.687616 L143.979541,248.687616 Z M105.838625,253.104128 C102.897195,252.587008 100.930416,249.808896 101.448585,246.879232 C101.96881,243.951616 104.758079,241.9712 107.697452,242.486272 C110.637854,243.003392 112.605661,245.781504 112.109083,248.711168 C111.633067,251.337728 109.362994,253.167616 106.768039,253.167616 C106.464745,253.167616 106.16248,253.146112 105.838625,253.104128 L105.838625,253.104128 Z M122.616392,249.61536 C122.616392,246.62016 125.038625,244.20864 128.021179,244.20864 C131.006818,244.20864 133.425966,246.62016 133.425966,249.591808 C133.449613,252.565504 131.02738,254.976 128.043798,254.976 C125.059187,254.976 122.637982,252.565504 122.616392,249.61536 L122.616392,249.61536 Z" id="Fill-5" fill="#FFFFFF" mask="url(#mask-2)"></path>
            </g>
        </g>
    </g>
</svg>
